<svg width="1920" height="1080" viewBox="0 0 1920 1080" fill="none" xmlns="http://www.w3.org/2000/svg">
<g clip-path="url(#clip0)">
<path d="M515.218 157.22C259.791 39.4024 305.109 -162 305.109 -162H2169.31L2193 1101C2193 1101 1669.27 902.544 1472.04 745.454C1274.8 588.364 1326.3 429.18 1122.37 324.454C918.442 219.728 770.644 275.037 515.218 157.22Z" fill="#00A79C" fill-opacity="0.25"/>
<path d="M557.218 181.22C301.791 63.4024 347.109 -138 347.109 -138H2211.31L2235 1125C2235 1125 1711.27 926.544 1514.04 769.454C1316.8 612.364 1368.3 453.18 1164.37 348.454C960.442 243.728 812.644 299.037 557.218 181.22Z" fill="#00A79C" fill-opacity="0.25"/>
<path d="M582.218 181.22C326.791 63.4024 372.109 -138 372.109 -138H2236.31L2260 1125C2260 1125 1736.27 926.544 1539.04 769.454C1341.8 612.364 1393.3 453.18 1189.37 348.454C985.442 243.728 837.644 299.037 582.218 181.22Z" fill="#00A79C"/>
</g>
<defs>
<clipPath id="clip0">
<rect width="1920" height="1080" fill="white"/>
</clipPath>
</defs>
</svg>
